<svg width="25" height="25" viewBox="0 0 25 25" fill="none" xmlns="http://www.w3.org/2000/svg">
<mask id="path-1-inside-1" fill="white">
<path fill-rule="evenodd" clip-rule="evenodd" d="M12.5 25C19.4036 25 25 19.4036 25 12.5C25 5.59644 19.4036 0 12.5 0C5.59644 0 0 5.59644 0 12.5C0 14.5968 0.516281 16.573 1.42866 18.3085V23.5715H6.69182C8.42721 24.4838 10.4033 25 12.5 25Z"/>
</mask>
<path d="M1.42866 18.3085H3.82866C3.82866 17.9194 3.73405 17.5361 3.55298 17.1917L1.42866 18.3085ZM1.42866 23.5715H-0.971341C-0.971341 24.897 0.103175 25.9715 1.42866 25.9715V23.5715ZM6.69182 23.5715L7.80857 21.4472C7.46417 21.2661 7.08091 21.1715 6.69182 21.1715V23.5715ZM22.6 12.5C22.6 18.0781 18.0781 22.6 12.5 22.6V27.4C20.729 27.4 27.4 20.729 27.4 12.5H22.6ZM12.5 2.4C18.0781 2.4 22.6 6.92192 22.6 12.5H27.4C27.4 4.27096 20.729 -2.4 12.5 -2.4V2.4ZM2.4 12.5C2.4 6.92192 6.92192 2.4 12.5 2.4V-2.4C4.27096 -2.4 -2.4 4.27096 -2.4 12.5H2.4ZM3.55298 17.1917C2.81732 15.7924 2.4 14.1985 2.4 12.5H-2.4C-2.4 14.9952 -1.78476 17.3537 -0.695661 19.4253L3.55298 17.1917ZM3.82866 23.5715V18.3085H-0.971341V23.5715H3.82866ZM6.69182 21.1715H1.42866V25.9715H6.69182V21.1715ZM12.5 22.6C10.8016 22.6 9.20782 22.1827 7.80857 21.4472L5.57508 25.6959C7.64659 26.7848 10.005 27.4 12.5 27.4V22.6Z" fill="#3F3F8E" mask="url(#path-1-inside-1)"/>
<circle cx="7.5" cy="12.5" r="1.5" fill="#3F3F8E"/>
<circle cx="12.5" cy="12.5" r="1.5" fill="#3F3F8E"/>
<circle cx="17.5" cy="12.5" r="1.5" fill="#3F3F8E"/>
</svg>
