<svg width="48" height="48" viewBox="0 0 48 48" fill="none" xmlns="http://www.w3.org/2000/svg">
<path d="M29.5533 28.7035C29.5533 25.6414 27.0621 23.1501 24.0001 23.1501C20.9379 23.1501 18.4468 25.6414 18.4468 28.7035C18.4468 31.7655 20.938 34.2568 24.0001 34.2568C27.0621 34.2568 29.5533 31.7655 29.5533 28.7035Z" fill="white"/>
<path d="M24.1333 37.3019C19.0417 37.3019 13.8889 40.1539 13.6631 45.6107H34.3375C34.1205 39.905 28.9471 37.3019 24.1333 37.3019Z" fill="white"/>
<path d="M24.079 13.002C21.1799 13.002 18.2465 14.5896 18.0234 17.6292H29.9781C29.7635 14.4533 26.8206 13.002 24.079 13.002Z" fill="white"/>
<path d="M24 10.8884C25.7339 10.8884 27.1446 9.47777 27.1446 7.74377C27.1446 6.00996 25.7339 4.5993 24 4.5993C22.266 4.5993 20.8555 6.00996 20.8555 7.74377C20.8555 9.47777 22.266 10.8884 24 10.8884Z" fill="white"/>
<path d="M7.81348 17.638H17.2712C17.4857 14.1005 20.8016 12.252 24.0789 12.252C27.1864 12.252 30.5236 13.9408 30.7303 17.638H40.1351L40.1854 2.32782H7.81348V17.638ZM24.0001 3.84929C26.1475 3.84929 27.8946 5.59632 27.8946 7.74376C27.8946 9.89119 26.1475 11.6384 24.0001 11.6384C21.8525 11.6384 20.1055 9.89119 20.1055 7.74376C20.1055 5.59632 21.8525 3.84929 24.0001 3.84929Z" fill="white"/>
</svg>
