<svg width="30" height="30" viewBox="0 0 24 24" fill="none" xmlns="http://www.w3.org/2000/svg">
<mask id="path-1-inside-1" fill="white">
<path d="M0 12C0 18.6274 5.37258 24 12 24C18.6274 24 24 18.6274 24 12C24 5.37258 18.6274 0 12 0C5.37258 0 0 5.37258 0 12Z"/>
</mask>
<path d="M0 12C0 18.6274 5.37258 24 12 24C18.6274 24 24 18.6274 24 12C24 5.37258 18.6274 0 12 0C5.37258 0 0 5.37258 0 12Z" fill="white"/>
<path d="M1 12C1 18.0751 5.92487 23 12 23V25C4.8203 25 -1 19.1797 -1 12H1ZM12 23C18.0751 23 23 18.0751 23 12H25C25 19.1797 19.1797 25 12 25V23ZM23 12C23 5.92487 18.0751 1 12 1V-1C19.1797 -1 25 4.8203 25 12H23ZM12 1C5.92487 1 1 5.92487 1 12H-1C-1 4.8203 4.8203 -1 12 -1V1Z" fill="#3F3F8E" mask="url(#path-1-inside-1)"/>
<mask id="mask0" mask-type="alpha" maskUnits="userSpaceOnUse" x="0" y="0" width="30" height="30">
<mask id="path-3-inside-2" mask-type="luminance" fill="white">
<path d="M0 12C0 18.6274 5.37258 24 12 24C18.6274 24 24 18.6274 24 12C24 5.37258 18.6274 0 12 0C5.37258 0 0 5.37258 0 12Z"/>
</mask>
<path d="M0 12C0 18.6274 5.37258 24 12 24C18.6274 24 24 18.6274 24 12C24 5.37258 18.6274 0 12 0C5.37258 0 0 5.37258 0 12Z" fill="#272531"/>
<path d="M0.508095 12C0.508095 18.3468 5.6532 23.4919 12 23.4919V24.5081C5.09197 24.5081 -0.508095 18.908 -0.508095 12H0.508095ZM12 23.4919C18.3468 23.4919 23.4919 18.3468 23.4919 12H24.5081C24.5081 18.908 18.908 24.5081 12 24.5081V23.4919ZM23.4919 12C23.4919 5.6532 18.3468 0.508094 12 0.508094V-0.508094C18.908 -0.508094 24.5081 5.09197 24.5081 12H23.4919ZM12 0.508094C5.6532 0.508094 0.508095 5.6532 0.508095 12H-0.508095C-0.508095 5.09197 5.09197 -0.508094 12 -0.508094V0.508094Z" fill="black" mask="url(#path-3-inside-2)"/>
</mask>
<g mask="url(#mask0)">
<path d="M2.32129 24.229C2.34894 22.7866 2.76373 21.5245 3.56565 20.3872C4.97594 18.3899 6.99457 17.2942 9.33122 16.7949C12.5389 16.1015 15.5807 16.4759 18.3598 18.3206C20.3646 19.6521 21.3739 21.5938 21.609 23.9794C21.609 24.0487 21.5813 24.1181 21.5537 24.2152C15.1659 24.229 8.77816 24.229 2.32129 24.229Z" fill="#3F3F8E"/>
<path d="M17.2177 8.98946C17.3695 11.4509 15.2308 14.2011 12.0434 14.1461C9.06295 14.0911 6.89661 11.8772 6.92421 8.96196C6.95181 6.03296 9.14573 3.90153 12.0986 3.84653C14.9272 3.79152 17.2177 6.14297 17.2177 8.98946Z" fill="#3F3F8E"/>
</g>
</svg>
