<svg width="46" height="46" viewBox="0 0 46 46" fill="none" xmlns="http://www.w3.org/2000/svg">
<path d="M14.375 0H2.875V46H14.375V0ZM11.5 40.25H5.75V37.375H11.5V40.25ZM11.5 34.5H5.75V31.625H11.5V34.5ZM11.5 28.75H5.75V25.875H11.5V28.75ZM8.625 8.625C7.038 8.625 5.75 7.337 5.75 5.75C5.75 4.163 7.038 2.875 8.625 2.875C10.212 2.875 11.5 4.163 11.5 5.75C11.5 7.337 10.212 8.625 8.625 8.625Z" fill="white"/>
<path d="M17.25 46H28.75V0H17.25V46ZM23 2.875C24.587 2.875 25.875 4.163 25.875 5.75C25.875 7.337 24.587 8.625 23 8.625C21.413 8.625 20.125 7.337 20.125 5.75C20.125 4.163 21.413 2.875 23 2.875ZM20.125 25.875H25.875V28.75H20.125V25.875ZM20.125 31.625H25.875V34.5H20.125V31.625ZM20.125 37.375H25.875V40.25H20.125V37.375Z" fill="white"/>
<path d="M43.125 0H31.625V46H43.125V0ZM40.25 40.25H34.5V37.375H40.25V40.25ZM40.25 34.5H34.5V31.625H40.25V34.5ZM40.25 28.75H34.5V25.875H40.25V28.75ZM37.375 8.625C35.788 8.625 34.5 7.337 34.5 5.75C34.5 4.163 35.788 2.875 37.375 2.875C38.962 2.875 40.25 4.163 40.25 5.75C40.25 7.337 38.962 8.625 37.375 8.625Z" fill="white"/>
</svg>
