<svg width="45" height="45" viewBox="0 0 45 45" fill="none" xmlns="http://www.w3.org/2000/svg">
<path d="M35.625 3.75V0H31.875V3.75H13.125V0H9.375V3.75H0V14.9062V18.6562V45H45V18.6562V14.9062V3.75H35.625ZM41.25 41.25H3.75V18.6562H41.25V41.25ZM3.75 14.9062V7.5H9.375V11.25H13.125V7.5H31.875V11.25H35.625V7.5H41.25V14.9062H3.75Z" fill="white"/>
<path d="M12.6562 22.5H7.03125V28.125H12.6562V22.5Z" fill="white"/>
<path d="M21.2505 22.5H15.6255V28.125H21.2505V22.5Z" fill="white"/>
<path d="M29.6094 22.5H23.9844V28.125H29.6094V22.5Z" fill="white"/>
<path d="M37.9688 22.5H32.3438V28.125H37.9688V22.5Z" fill="white"/>
<path d="M12.6562 30.9375H7.03125V36.5625H12.6562V30.9375Z" fill="white"/>
<path d="M21.2505 30.9375H15.6255V36.5625H21.2505V30.9375Z" fill="white"/>
<path d="M29.6094 30.9375H23.9844V36.5625H29.6094V30.9375Z" fill="white"/>
<path d="M37.9688 30.9375H32.3438V36.5625H37.9688V30.9375Z" fill="white"/>
</svg>
