<svg width="37" height="37" viewBox="0 0 37 37" fill="none" xmlns="http://www.w3.org/2000/svg">
<circle cx="18.4695" cy="18.4694" r="17.5434" fill="#3F3F8E" stroke="white" stroke-width="0.994898"/>
<path d="M26.5192 17.0489C26.3284 16.5921 26.1597 16.1277 25.7737 15.7862C25.5992 15.634 25.3955 15.5413 25.2067 15.456C25.0326 15.3782 24.8071 15.3672 24.6003 15.3748C24.2715 15.3863 23.9579 15.4795 23.6929 15.6804C23.5456 15.792 23.4134 15.9482 23.2737 16.0821C22.927 15.4916 22.3752 15.2431 21.7395 15.2214C21.078 15.196 20.5401 15.5012 20.1474 16.0181C19.1183 14.9377 18.0691 14.9684 17.0174 15.943C16.6656 15.0812 16.4612 14.145 16.0614 13.287C15.882 12.9007 15.839 12.4437 15.4901 12.1393C15.3453 12.0019 15.1967 11.8534 15.03 11.7607C14.7743 11.6234 14.4967 11.5308 14.1863 11.5236C13.8352 11.5054 13.5477 11.6394 13.2416 11.7549C13.0129 11.8443 12.8624 12.0191 12.7155 12.205C12.5944 12.3575 12.4918 12.5285 12.4189 12.7144C12.3495 12.8742 12.3394 13.0638 12.2996 13.2384C12.2419 13.506 12.2581 13.7736 12.3481 14.041C13.2 16.5708 14.0519 19.1006 14.9 21.6192C15.0613 22.0984 15.2227 22.5776 15.3878 23.068C15.3398 23.0717 15.3029 23.0717 15.277 23.0681C15.1106 23.0496 14.9478 23.0052 14.7779 23.0128C14.4823 23.0131 14.1756 23.0171 13.8802 23.0545C13.5737 23.0956 13.2562 23.1405 12.9647 23.2263C12.6954 23.3046 12.43 23.4311 12.1719 23.5429C11.9249 23.6509 11.7188 23.8071 11.5388 24.0042C11.3331 24.2348 11.1311 24.4765 11.07 24.8073C11.0377 25.0043 11.0314 25.2049 11.0693 25.3907C11.1337 25.6916 11.316 25.9404 11.5462 26.1483C11.743 26.3302 11.9801 26.4489 12.2427 26.497C12.4276 26.534 12.605 26.5487 12.7862 26.5745C13.1782 26.641 13.574 26.7187 13.9407 26.893C14.0889 26.9672 14.2701 26.993 14.4183 27.0672C14.811 27.2824 15.2076 27.5087 15.5931 27.7387C15.7636 27.8426 15.9378 27.9576 16.0937 28.0912C16.2606 28.2212 16.4055 28.3585 16.5613 28.4921C16.7878 28.6889 17.0179 28.8967 17.2443 29.0935C17.3816 29.2086 17.5227 29.3348 17.6711 29.4461C17.8752 29.6131 18.1123 29.7318 18.3529 29.8245C18.6639 29.9431 18.9637 30.0283 19.2926 30.054C19.6327 30.076 19.9652 30.0757 20.2751 29.9713C22.444 29.241 24.6055 28.5255 26.7669 27.7729C27.0435 27.6798 27.3087 27.516 27.5405 27.3263C27.7723 27.1366 27.9595 26.8874 28.1504 26.6494C28.2532 26.5156 28.3522 26.3705 28.4216 26.2107C28.5164 25.9802 28.5854 25.746 28.6285 25.5082C28.6752 25.2443 28.7181 24.9693 28.713 24.698C28.7042 24.4156 28.6325 24.1296 28.5756 23.8509C28.4883 23.4088 28.3457 22.9853 28.2695 22.5395C28.2048 22.1642 28.0736 21.8113 27.9646 21.451C27.7916 20.864 27.6518 20.2659 27.4566 19.6864C27.1602 18.806 26.8969 17.9144 26.5192 17.0489Z" fill="white"/>
<path d="M13.0198 18.8896C13.2085 18.9378 13.397 18.9487 13.6151 18.9745C13.5138 18.6736 13.4275 18.4173 13.3412 18.161C13.3299 18.1276 13.2928 18.0905 13.2632 18.0756C13.03 18.0052 12.797 17.972 12.5712 17.8867C12.2899 17.783 12.0158 17.6643 11.7601 17.5271C11.5045 17.3898 11.2745 17.2191 11.0518 17.0335C10.8626 16.8739 10.6952 16.6697 10.5427 16.4729C10.2899 16.161 10.0516 15.8193 9.90188 15.4479C9.68836 14.8869 9.47485 14.326 9.47908 13.7166C9.4787 13.6423 9.45243 13.5643 9.45204 13.49C9.46927 13.2484 9.49756 13.0031 9.5296 12.769C9.56164 12.5349 9.61957 12.3044 9.68125 12.0851C9.72474 11.9216 9.78305 11.7655 9.86725 11.613C10.0062 11.3305 10.1451 11.048 10.3175 10.7914C10.4714 10.5534 10.6736 10.3489 10.8758 10.1443C11.0706 9.95461 11.2803 9.77233 11.5085 9.60862C11.6963 9.47095 11.9174 9.35927 12.1274 9.25131C12.3081 9.16568 12.4814 9.09492 12.6732 9.04271C12.8762 8.98679 13.0904 8.96429 13.3044 8.90464C13.6179 8.81145 13.9467 8.8 14.272 8.81456C14.5233 8.82919 14.7822 8.86611 15.0337 8.9179C15.3555 8.99563 15.6812 9.08451 15.9959 9.21428C16.2848 9.34035 16.5663 9.4813 16.8002 9.70032C17.0527 9.93791 17.3604 10.1197 17.5907 10.3647C17.8136 10.5875 17.9924 10.8623 18.149 11.1446C18.2981 11.4045 18.4289 11.6831 18.5154 11.9766C18.6244 12.3369 18.7667 12.6861 18.7502 13.0763C18.7401 13.2658 18.7891 13.4479 18.779 13.6374C18.773 13.9124 18.7301 14.1874 18.6982 14.4587C18.6909 14.4735 18.6836 14.4884 18.6763 14.5033C18.6437 14.6259 18.6184 14.7337 18.5931 14.8415C18.8815 14.8933 19.1368 14.9562 19.3994 15.0043C19.5822 14.6325 19.6524 13.1944 19.5614 12.7411C19.4095 11.9609 19.1656 11.2365 18.7409 10.5606C18.331 9.89213 17.7924 9.35382 17.1546 8.92336C15.9753 8.09209 14.6473 7.80719 13.248 8.00543C12.1809 8.16621 11.2301 8.6353 10.4283 9.36437C9.32879 10.3798 8.73306 11.6475 8.63741 13.1563C8.56534 14.2228 8.82187 15.2408 9.34398 16.1693C10.1533 17.6214 11.4142 18.5121 13.0198 18.8896Z" fill="white"/>
<path d="M17.0795 15.103C17.0906 15.0993 17.1165 15.103 17.1275 15.0993C17.6213 14.1141 17.6862 13.0996 17.2339 12.0855C16.8414 11.2127 16.1878 10.589 15.2661 10.2666C14.6664 10.059 14.049 9.98156 13.4327 10.1271C12.8164 10.2725 12.2376 10.5295 11.7744 10.9833C11.4509 11.3031 11.1904 11.6638 11.0077 12.0727C10.6935 12.7493 10.6418 13.474 10.7897 14.2059C10.8997 14.752 11.1683 15.2571 11.5326 15.6804C11.8821 16.0963 12.3087 16.4117 12.8234 16.6231C12.8269 16.5971 12.8232 16.5859 12.8194 16.5748C12.6956 16.207 12.5717 15.8392 12.4442 15.4603C12.4329 15.4269 12.3995 15.4009 12.3772 15.3712C12.1431 15.115 11.8831 14.8552 11.7741 14.4948C11.7253 14.3499 11.6692 14.2199 11.6315 14.0713C11.541 13.7296 11.5282 13.3988 11.5782 13.0718C11.6067 12.8637 11.6907 12.6741 11.7562 12.4659C11.8143 12.2726 11.9576 12.1127 12.0564 11.9306C12.2505 11.5922 12.5672 11.3987 12.8692 11.1978C13.0717 11.0675 13.3227 11.0078 13.5551 10.9296C13.6325 10.9035 13.7248 10.8848 13.8098 10.881C13.9945 10.8809 14.1757 10.9067 14.3678 10.8917C14.6227 10.8803 14.8596 10.9618 15.0743 11.0508C15.3928 11.1917 15.6856 11.3661 15.9456 11.626C16.1871 11.8673 16.3696 12.1532 16.5152 12.4392C16.6197 12.6398 16.6394 12.8813 16.6775 13.1042C16.7004 13.2454 16.7233 13.3866 16.7093 13.5278C16.6881 13.7211 16.6632 13.9032 16.7418 14.1C16.8317 14.3303 16.8994 14.5681 16.982 14.8133C17.0195 14.9247 17.0495 15.0139 17.0795 15.103Z" fill="white"/>
</svg>
