<svg width="37" height="37" viewBox="0 0 37 37" fill="none" xmlns="http://www.w3.org/2000/svg">
<circle cx="18.4695" cy="18.4694" r="17.5434" fill="#3F3F8E" stroke="white" stroke-width="0.994898"/>
<path d="M21.729 21.8739C21.729 23.4236 21.729 24.9733 21.729 26.523C21.729 26.6121 21.7657 26.6655 21.8391 26.719C21.9858 26.8348 22.1326 26.9506 22.2518 27.0842C22.5545 27.4048 22.582 27.8412 22.3252 28.2331C22.0867 28.5983 21.7473 28.8565 21.3805 29.0792C20.7201 29.48 20.0138 29.7828 19.2526 29.9431C18.6197 30.0767 18.0143 29.9699 17.4457 29.6759C16.611 29.2484 16.0974 28.5804 15.9048 27.6809C15.8681 27.4938 15.8497 27.2979 15.8497 27.102C15.8497 24.145 15.8497 21.1881 15.8497 18.2311C15.8497 17.9995 15.8406 17.9995 15.6021 18.0352C15.4003 18.0619 15.2077 18.0708 15.0059 18.0797C14.8041 18.0886 14.639 18.0174 14.5473 17.8303C14.4556 17.6344 14.5015 17.4473 14.6482 17.3048C14.9325 17.0198 15.2169 16.7348 15.5196 16.4676C16.2625 15.8353 17.0788 15.3009 17.941 14.8199C18.6564 14.4191 19.3534 14.4904 20.0413 14.8199C20.9219 15.2296 21.463 15.9243 21.674 16.8506C21.7106 17.0198 21.729 17.2069 21.729 17.3761C21.7382 18.8724 21.729 20.3776 21.729 21.8739Z" fill="white"/>
<path d="M18.5003 13.003C16.7668 13.003 15.4001 11.6136 15.4277 9.97481C15.446 8.32711 16.831 6.99114 18.5186 7.00004C20.2521 7.00895 21.6188 8.36274 21.6004 10.0461C21.5821 11.6849 20.1879 13.0119 18.5003 13.003Z" fill="white"/>
</svg>
