<svg width="21" height="17" viewBox="0 0 21 17" fill="none" xmlns="http://www.w3.org/2000/svg">
<path d="M9.59186 12.2154C11.5369 12.2154 13.3418 12.2154 15.1467 12.2154C16.8115 12.2154 18.4762 12.1991 20.1409 12.2154C20.7192 12.2154 20.9995 12.0521 20.9995 11.4642C20.982 9.50453 20.9645 7.54484 20.9995 5.58514C21.0171 4.85025 20.5439 4.81759 19.9832 4.81759C16.9516 4.81759 13.9201 4.81759 10.8711 4.81759C10.5031 4.81759 10.1176 4.81759 9.67947 4.81759C9.64442 4.5563 9.60938 4.344 9.60938 4.14803C9.60938 3.00487 9.6269 1.86171 9.59186 0.718556C9.59186 0.473594 9.41662 0.228631 9.32901 0C9.08368 0.0979849 8.76826 0.130647 8.59303 0.293955C5.82434 2.84156 3.09071 5.38917 0.322025 7.93677C-0.0985355 8.32871 -0.116058 8.62267 0.322025 9.03094C3.09071 11.5949 5.85939 14.1751 8.62807 16.7554C8.78578 16.9024 9.13625 17.0494 9.29396 16.984C9.45167 16.9187 9.57433 16.5921 9.59186 16.3798C9.60938 15.0407 9.59186 13.7016 9.59186 12.2154Z" fill="#CDCDCD"/>
</svg>
