<svg width="24" height="24" viewBox="0 0 24 24" fill="none" xmlns="http://www.w3.org/2000/svg">
<g clip-path="url(#clip0)">
<path d="M14.4443 7.05857L7.85506 11.8264C7.82768 11.8462 7.80538 11.8721 7.79 11.9021C7.77462 11.9322 7.7666 11.9654 7.7666 11.9992C7.7666 12.0329 7.77462 12.0662 7.79 12.0962C7.80538 12.1263 7.82768 12.1522 7.85506 12.172L14.4443 16.9398C14.5863 17.0416 14.7845 16.9398 14.7845 16.7657V15.5095C14.7845 15.2362 14.6533 14.9764 14.431 14.8157L10.5363 12.0005L14.431 9.18268C14.6533 9.02196 14.7845 8.76482 14.7845 8.48893V7.23268C14.7845 7.05857 14.5863 6.95678 14.4443 7.05857Z" fill="white"/>
<path d="M12 0C5.37321 0 0 5.37321 0 12C0 18.6268 5.37321 24 12 24C18.6268 24 24 18.6268 24 12C24 5.37321 18.6268 0 12 0ZM12 21.9643C6.49821 21.9643 2.03571 17.5018 2.03571 12C2.03571 6.49821 6.49821 2.03571 12 2.03571C17.5018 2.03571 21.9643 6.49821 21.9643 12C21.9643 17.5018 17.5018 21.9643 12 21.9643Z" fill="white"/>
</g>
<defs>
<clipPath id="clip0">
<rect width="24" height="24" fill="white"/>
</clipPath>
</defs>
</svg>
