<svg width="19" height="26" viewBox="0 0 19 26" fill="none" xmlns="http://www.w3.org/2000/svg">
<path fill-rule="evenodd" clip-rule="evenodd" d="M9.5 0C4.24786 0 0 4.069 0 9.1C0 15.925 9.5 26 9.5 26C9.5 26 19 15.925 19 9.1C19 4.069 14.7521 0 9.5 0ZM2.71426 9.09985C2.71426 5.51185 5.75426 2.59985 9.49998 2.59985C13.2457 2.59985 16.2857 5.51185 16.2857 9.09985C16.2857 12.8439 12.3771 18.4469 9.49998 21.9439C6.67712 18.4729 2.71426 12.8049 2.71426 9.09985ZM6.10712 9.09985C6.10712 7.30493 7.62615 5.84985 9.49998 5.84985C10.7121 5.84985 11.8322 6.4693 12.4383 7.47485C13.0444 8.48041 13.0444 9.7193 12.4383 10.7249C11.8322 11.7304 10.7121 12.3499 9.49998 12.3499C7.62615 12.3499 6.10712 10.8948 6.10712 9.09985Z" fill="#3F3F8E"/>
</svg>
