<svg width="24" height="24" viewBox="0 0 24 24" fill="none" xmlns="http://www.w3.org/2000/svg">
<g clip-path="url(#clip0)">
<path d="M10.7144 12C10.7144 12.341 10.8499 12.668 11.091 12.9091C11.3321 13.1503 11.6592 13.2857 12.0002 13.2857C12.3411 13.2857 12.6682 13.1503 12.9093 12.9091C13.1504 12.668 13.2859 12.341 13.2859 12C13.2859 11.659 13.1504 11.332 12.9093 11.0909C12.6682 10.8497 12.3411 10.7143 12.0002 10.7143C11.6592 10.7143 11.3321 10.8497 11.091 11.0909C10.8499 11.332 10.7144 11.659 10.7144 12ZM16.0716 12C16.0716 12.341 16.207 12.668 16.4482 12.9091C16.6893 13.1503 17.0163 13.2857 17.3573 13.2857C17.6983 13.2857 18.0253 13.1503 18.2664 12.9091C18.5076 12.668 18.643 12.341 18.643 12C18.643 11.659 18.5076 11.332 18.2664 11.0909C18.0253 10.8497 17.6983 10.7143 17.3573 10.7143C17.0163 10.7143 16.6893 10.8497 16.4482 11.0909C16.207 11.332 16.0716 11.659 16.0716 12ZM5.3573 12C5.3573 12.341 5.49275 12.668 5.73387 12.9091C5.97499 13.1503 6.30202 13.2857 6.64301 13.2857C6.984 13.2857 7.31103 13.1503 7.55215 12.9091C7.79327 12.668 7.92872 12.341 7.92872 12C7.92872 11.659 7.79327 11.332 7.55215 11.0909C7.31103 10.8497 6.984 10.7143 6.64301 10.7143C6.30202 10.7143 5.97499 10.8497 5.73387 11.0909C5.49275 11.332 5.3573 11.659 5.3573 12ZM23.068 7.35C22.4627 5.91161 21.5948 4.62054 20.4885 3.51161C19.39 2.4091 18.086 1.53274 16.6502 0.932143C15.1769 0.313393 13.6127 0 12.0002 0H11.9466C10.3234 0.00803571 8.75105 0.329464 7.27247 0.961607C5.84897 1.56836 4.55711 2.44628 3.4689 3.54643C2.37337 4.65268 1.51355 5.93839 0.918902 7.37143C0.302831 8.85536 -0.00788375 10.433 0.000151963 12.0562C0.00924103 13.9164 0.449326 15.7492 1.28587 17.4107V21.4821C1.28587 21.8089 1.41568 22.1223 1.64675 22.3534C1.87782 22.5845 2.19122 22.7143 2.51801 22.7143H6.59212C8.25362 23.5508 10.0864 23.9909 11.9466 24H12.0028C13.6073 24 15.1635 23.6893 16.6287 23.0813C18.0573 22.4878 19.3565 21.6217 20.4537 20.5312C21.56 19.4357 22.4305 18.1554 23.0385 16.7277C23.6707 15.2491 23.9921 13.6768 24.0002 12.0536C24.0082 10.4223 23.6921 8.83929 23.068 7.35ZM19.0207 19.0821C17.143 20.9411 14.6519 21.9643 12.0002 21.9643H11.9546C10.3394 21.9563 8.73497 21.5545 7.31801 20.7991L7.09301 20.6786H3.32158V16.9071L3.20105 16.6821C2.44569 15.2652 2.0439 13.6607 2.03587 12.0455C2.02515 9.375 3.04569 6.86786 4.91801 4.97946C6.78765 3.09107 9.28676 2.04643 11.9573 2.03571H12.0028C13.3421 2.03571 14.6412 2.29554 15.8653 2.80982C17.06 3.31071 18.1314 4.03125 19.0528 4.95268C19.9716 5.87143 20.6948 6.94554 21.1957 8.14018C21.7153 9.37768 21.9752 10.6902 21.9698 12.0455C21.9537 14.7134 20.9064 17.2125 19.0207 19.0821Z" fill="white"/>
</g>
<defs>
<clipPath id="clip0">
<rect width="24" height="24" fill="white"/>
</clipPath>
</defs>
</svg>
