<svg width="41" height="41" viewBox="0 0 41 41" fill="none" xmlns="http://www.w3.org/2000/svg">
<circle cx="20.25" cy="20.25" r="20.25" fill="rgba(63, 63, 142, 1)"/>
<path fill-rule="evenodd" clip-rule="evenodd" d="M22.125 7.88369C22.125 6.84138 21.2875 6 20.25 6C19.2125 6 18.375 6.84138 18.375 7.88369V9.35297C14.45 10.2069 11.5 13.7231 11.5 17.93V25.4648L9 27.9764V29.2322H31.5V27.9764L29 25.4648V17.93C29 13.7231 26.05 10.2069 22.125 9.35297V7.88369ZM20.249 11.6514C16.799 11.6514 13.999 14.4643 13.999 17.9303V26.7209H26.499V17.9303C26.499 14.4643 23.699 11.6514 20.249 11.6514ZM22.7373 30.501C22.7373 31.8824 21.6248 33 20.2498 33C18.8748 33 17.7623 31.8824 17.7623 30.501H22.7373Z" fill="white"/>
</svg>
