<svg width="24" height="24" viewBox="0 0 24 24" fill="none" xmlns="http://www.w3.org/2000/svg">
<g clip-path="url(#clip0)">
<path d="M16.1433 11.8254L9.55405 7.0575C9.52202 7.03425 9.48419 7.02032 9.44473 7.01726C9.40528 7.0142 9.36575 7.02212 9.33052 7.04015C9.2953 7.05818 9.26575 7.08561 9.24516 7.1194C9.22457 7.1532 9.21374 7.19203 9.21387 7.23161V8.48786C9.21387 8.76107 9.34512 9.02089 9.56744 9.18161L13.4621 11.9995L9.56744 14.8173C9.34512 14.978 9.21387 15.2352 9.21387 15.5111V16.7673C9.21387 16.9414 9.41208 17.0432 9.55405 16.9414L16.1433 12.1736C16.2612 12.0879 16.2612 11.9111 16.1433 11.8254Z" fill="white"/>
<path d="M12 0C5.37321 0 0 5.37321 0 12C0 18.6268 5.37321 24 12 24C18.6268 24 24 18.6268 24 12C24 5.37321 18.6268 0 12 0ZM12 21.9643C6.49821 21.9643 2.03571 17.5018 2.03571 12C2.03571 6.49821 6.49821 2.03571 12 2.03571C17.5018 2.03571 21.9643 6.49821 21.9643 12C21.9643 17.5018 17.5018 21.9643 12 21.9643Z" fill="white"/>
</g>
<defs>
<clipPath id="clip0">
<rect width="24" height="24" fill="white"/>
</clipPath>
</defs>
</svg>
