<svg width="21" height="17" viewBox="0 0 21 17" fill="none" xmlns="http://www.w3.org/2000/svg">
<path d="M11.4081 12.2154C9.46306 12.2154 7.65816 12.2154 5.85326 12.2154C4.18854 12.2154 2.52383 12.1991 0.859114 12.2154C0.280845 12.2154 0.000471695 12.0521 0.000471695 11.4642C0.017995 9.50453 0.0355183 7.54484 0.000471695 5.58514C-0.0170516 4.85025 0.456078 4.81759 1.01682 4.81759C4.04836 4.81759 7.07989 4.81759 10.1289 4.81759C10.4969 4.81759 10.8824 4.81759 11.3205 4.81759C11.3556 4.5563 11.3906 4.344 11.3906 4.14803C11.3906 3.00487 11.3731 1.86171 11.4081 0.718556C11.4081 0.473594 11.5834 0.228631 11.671 0C11.9163 0.0979849 12.2317 0.130647 12.407 0.293955C15.1757 2.84156 17.9093 5.38917 20.678 7.93677C21.0985 8.32871 21.1161 8.62267 20.678 9.03094C17.9093 11.5949 15.1406 14.1751 12.3719 16.7554C12.2142 16.9024 11.8638 17.0494 11.706 16.984C11.5483 16.9187 11.4257 16.5921 11.4081 16.3798C11.3906 15.0407 11.4081 13.7016 11.4081 12.2154Z" fill="#CDCDCD"/>
</svg>
