<svg width="20" height="20" viewBox="0 0 20 20" fill="none" xmlns="http://www.w3.org/2000/svg">
<path d="M16.6929 8.35001C16.6501 13.0911 12.9383 16.7377 8.21768 16.6984C3.71894 16.6619 -0.163988 12.8636 0.00533835 8.03691C0.162188 3.60179 3.86598 -0.0581728 8.44315 0.000700491C13.0257 0.0586818 16.7348 3.79803 16.6929 8.35001ZM14.9792 8.35447C14.9756 4.71592 11.9607 1.69019 8.35759 1.70892C4.71886 1.72765 1.7289 4.71592 1.71821 8.34555C1.70752 11.9636 4.7144 14.9768 8.34779 14.9893C11.9696 15.0009 14.9827 11.9859 14.9792 8.35447Z" fill="#3F3F8E"/>
<path d="M14.0085 16.4148C14.8169 15.6048 15.5904 14.8287 16.3417 14.0741C17.4281 15.1374 18.5572 16.1837 19.6133 17.2996C20.2157 17.9365 20.082 18.9401 19.4359 19.5395C18.7657 20.1612 17.797 20.1595 17.1144 19.4976C16.2205 18.6314 15.3516 17.7385 14.4702 16.8581C14.3231 16.7118 14.1716 16.5709 14.0085 16.4148Z" fill="#3F3F8E"/>
</svg>
