<svg width="59" height="59" viewBox="0 0 59 59" fill="none" xmlns="http://www.w3.org/2000/svg">
<path d="M53.0075 46.3661L49.1666 11.8C49.1666 9.62681 47.4064 7.86664 45.2332 7.86664H29.4999H13.7666C11.5934 7.86664 9.83324 9.62681 9.83324 11.8L5.99234 46.3661C5.9353 46.6355 5.8999 46.9128 5.8999 47.2C5.8999 49.3731 7.66007 51.1333 9.83324 51.1333H29.4999H49.1666C51.3397 51.1333 53.0999 49.3731 53.0999 47.2C53.0999 46.9128 53.0645 46.6355 53.0075 46.3661ZM39.3332 17.519V19.6666C39.3332 25.0887 34.922 29.5 29.4999 29.5C24.0778 29.5 19.6666 25.0887 19.6666 19.6666V17.519C18.5239 17.1139 17.6999 16.0322 17.6999 14.75C17.6999 13.1216 19.0215 11.8 20.6499 11.8C22.2783 11.8 23.5999 13.1216 23.5999 14.75V19.6666C23.5999 22.9195 26.247 25.5666 29.4999 25.5666C32.7528 25.5666 35.3999 22.9195 35.3999 19.6666V14.75C35.3999 13.1216 36.7215 11.8 38.3499 11.8C39.9783 11.8 41.2999 13.1216 41.2999 14.75C41.2999 16.0322 40.4759 17.1139 39.3332 17.519Z" fill="white"/>
</svg>
