<svg width="28" height="28" viewBox="0 0 28 28" fill="none" xmlns="http://www.w3.org/2000/svg">
<mask id="path-1-outside-1" maskUnits="userSpaceOnUse" x="0" y="0" width="28" height="28" fill="black">
<rect fill="white" width="28" height="28"/>
<path d="M14.7679 27C14.2591 27 13.7503 27 13.2466 27C13.1703 26.9847 13.0991 26.9695 13.0227 26.9542C12.3155 26.8423 11.5931 26.7863 10.896 26.6184C4.22579 25.0208 -0.073469 18.315 1.23412 11.5684C1.77852 8.75993 3.08611 6.36863 5.19758 4.44541C8.20961 1.70304 11.766 0.609142 15.7956 1.12302C18.365 1.44864 20.624 2.50183 22.5676 4.21645C24.8521 6.23634 26.2818 8.74467 26.8058 11.7567C26.8923 12.2451 26.9381 12.7387 27.0043 13.2322C27.0043 13.741 27.0043 14.2498 27.0043 14.7535C26.989 14.845 26.9686 14.9315 26.9585 15.0231C26.8974 15.4912 26.8618 15.9644 26.7702 16.4325C26.2767 19.0222 25.1014 21.2609 23.2443 23.1332C21.3007 25.0971 18.9654 26.3284 16.2383 26.8016C15.76 26.883 15.2614 26.9339 14.7679 27ZM18.1717 18.9561C18.4363 17.4551 18.5533 15.9491 18.5787 14.438C17.1795 14.438 15.8109 14.438 14.4372 14.438C14.4372 15.9542 14.4372 17.45 14.4372 18.9561C15.6837 18.9561 16.9099 18.9561 18.1717 18.9561ZM9.43579 14.4278C9.46631 15.9593 9.57825 17.4653 9.84791 18.9561C11.1046 18.9561 12.3359 18.9561 13.5773 18.9561C13.5773 17.4399 13.5773 15.944 13.5773 14.4278C12.1934 14.4278 10.8299 14.4278 9.43579 14.4278ZM18.2327 9.03468C16.9099 9.03468 15.6786 9.03468 14.4372 9.03468C14.4372 10.5509 14.4372 12.0467 14.4372 13.5578C15.8211 13.5578 17.1948 13.5578 18.6347 13.5578C18.5024 12.0365 18.3701 10.5407 18.2327 9.03468ZM9.37982 13.5629C10.835 13.5629 12.1985 13.5629 13.5773 13.5629C13.5773 12.0467 13.5773 10.5458 13.5773 9.03468C12.3257 9.03468 11.0893 9.03468 9.78176 9.03468C9.64439 10.5407 9.5121 12.0365 9.37982 13.5629ZM23.0408 14.4329C21.8299 14.4329 20.6393 14.4329 19.4742 14.4329C19.3419 15.9542 19.2147 17.45 19.0875 18.9561C20.1203 18.9561 21.1939 18.9561 22.2674 18.9561C22.6643 18.0504 23.1069 15.5065 23.0408 14.4329ZM4.95336 14.4278C4.99406 15.9949 5.24337 17.506 5.7369 18.9561C6.84097 18.9561 7.89925 18.9561 8.92191 18.9561C8.79471 17.4399 8.66243 15.9389 8.53523 14.4278C7.35993 14.4278 6.16936 14.4278 4.95336 14.4278ZM19.0875 9.02959C19.2198 10.556 19.347 12.0569 19.4742 13.5629C20.6546 13.5629 21.8451 13.5629 23.0561 13.5629C23.0154 12.0009 22.766 10.4949 22.2725 9.02959C21.1939 9.02959 20.1305 9.02959 19.0875 9.02959ZM8.927 9.03468C8.927 9.03468 8.90665 9.0245 8.88121 9.0245C7.88398 9.0245 6.88676 9.0245 5.88444 9.01942C5.73181 9.01942 5.71146 9.10082 5.67075 9.21275C5.34513 10.2202 5.14161 11.2581 5.02459 12.3113C4.9788 12.7234 4.97371 13.1457 4.94827 13.568C6.18463 13.568 7.37011 13.568 8.53523 13.568C8.66752 12.0518 8.79471 10.556 8.927 9.03468ZM14.4423 19.8261C14.4423 21.0421 14.4423 22.2377 14.4423 23.4537C15.2207 23.4537 15.9788 23.4588 16.742 23.4436C16.803 23.4436 16.8895 23.3418 16.915 23.2655C17.2406 22.3242 17.5561 21.383 17.8664 20.4366C17.9326 20.2433 17.958 20.0347 18.0038 19.821C16.7929 19.8261 15.6227 19.8261 14.4423 19.8261ZM13.5773 23.4537C13.5773 22.2225 13.5773 21.0319 13.5773 19.8261C12.3868 19.8261 11.2115 19.8261 10.0107 19.8261C10.2702 21.0523 10.6162 22.2225 11.1301 23.3367C11.1504 23.3876 11.2267 23.4436 11.2725 23.4436C12.0357 23.4588 12.7938 23.4537 13.5773 23.4537ZM13.5722 8.16465C13.5722 6.95373 13.5722 5.75299 13.5722 4.53699C12.7938 4.53699 12.0357 4.5319 11.2776 4.54716C11.2165 4.54716 11.1301 4.64892 11.1046 4.72015C10.8604 5.36631 10.606 6.01248 10.3923 6.66881C10.2346 7.15216 10.1328 7.65586 10.0005 8.16465C11.2165 8.16465 12.3918 8.16465 13.5722 8.16465ZM18.0038 8.16465C17.7443 6.93338 17.3983 5.76317 16.8794 4.64892C16.8488 4.58787 16.7216 4.53699 16.6351 4.53699C15.9839 4.52681 15.3326 4.5319 14.6814 4.5319C14.6 4.5319 14.5186 4.54208 14.4372 4.54716C14.4372 5.76317 14.4372 6.95373 14.4372 8.15956C15.6227 8.16465 16.7929 8.16465 18.0038 8.16465ZM4.84652 9.01942C4.22071 9.01942 3.64577 9.0245 3.07084 9.01433C2.91312 9.00924 2.87242 9.09573 2.82663 9.20767C2.40942 10.1744 2.12958 11.1818 1.98204 12.2248C1.92098 12.6623 1.89045 13.1101 1.84975 13.5629C2.6282 13.5629 3.36085 13.5629 4.10877 13.5629C4.14948 12.0213 4.38352 10.5203 4.84652 9.01942ZM26.1291 13.568C26.1393 13.5222 26.1444 13.4968 26.1444 13.4713C26.0935 11.9653 25.7526 10.5305 25.1574 9.1517C25.137 9.10082 25.0709 9.02959 25.0251 9.02959C24.4196 9.01941 23.8141 9.0245 23.168 9.0245C23.631 10.5203 23.8599 12.0264 23.9108 13.568C24.6638 13.568 25.3863 13.568 26.1291 13.568ZM1.88537 14.4278C1.87519 14.4685 1.86501 14.494 1.86501 14.5194C1.88028 14.7636 1.89045 15.0079 1.91589 15.2521C2.03292 16.4884 2.34836 17.679 2.84189 18.8187C2.86733 18.8797 2.94873 18.9662 3.0047 18.9662C3.60507 18.9764 4.20035 18.9713 4.84652 18.9713C4.37843 17.4755 4.15456 15.9695 4.0986 14.4278C3.35577 14.4278 2.6282 14.4278 1.88537 14.4278ZM23.168 18.9713C23.7734 18.9713 24.3331 18.9611 24.8877 18.9764C25.0658 18.9815 25.1319 18.9103 25.1981 18.7627C25.6051 17.8011 25.8849 16.8039 26.0325 15.771C26.0935 15.3335 26.124 14.8857 26.1648 14.4329C25.3863 14.4329 24.6537 14.4329 23.9057 14.4329C23.8599 15.9695 23.631 17.4653 23.168 18.9713ZM21.9367 8.16974C21.9265 8.11886 21.9265 8.08324 21.9164 8.0578C21.5042 7.08093 20.9853 6.16002 20.3442 5.31544C19.754 4.53699 19.7489 4.54208 18.7721 4.54208C18.6347 4.54208 18.5024 4.54208 18.365 4.54208C18.1768 4.54208 17.9885 4.54208 17.7697 4.54208C18.2582 5.7072 18.594 6.86724 18.8535 8.04763C18.8687 8.10868 19.0112 8.17991 19.0926 8.185C19.9575 8.19518 20.8174 8.19009 21.6823 8.19009C21.7586 8.17991 21.84 8.17483 21.9367 8.16974ZM6.05743 8.15448C6.12357 8.16974 6.1541 8.17991 6.18463 8.17991C7.11571 8.17991 8.04679 8.17991 8.97788 8.185C9.12034 8.185 9.15595 8.11886 9.19157 7.99675C9.36964 7.29462 9.54772 6.58741 9.75124 5.89037C9.88352 5.43754 10.0667 5.00507 10.2346 4.53699C9.61386 4.53699 9.01349 4.5319 8.41312 4.54208C8.34698 4.54208 8.26557 4.60822 8.21469 4.66927C7.54309 5.41719 6.9936 6.24652 6.53569 7.1369C6.35762 7.45743 6.22024 7.79832 6.05743 8.15448ZM10.1583 23.4537C9.83264 22.3039 9.50702 21.1795 9.20174 20.0449C9.15087 19.8617 9.0949 19.8006 8.90665 19.8006C8.04171 19.8108 7.18185 19.8057 6.31691 19.8057C6.24568 19.8057 6.16936 19.8159 6.09305 19.821C6.09305 19.8617 6.08796 19.8871 6.09305 19.9075C6.62219 21.1744 7.32432 22.3293 8.24013 23.3571C8.28084 23.4029 8.35207 23.4436 8.40803 23.4487C9.0084 23.4588 9.60878 23.4537 10.1583 23.4537ZM21.9571 19.8363C21.8909 19.821 21.8604 19.8108 21.8299 19.8108C20.8988 19.8108 19.9677 19.8108 19.0366 19.8057C18.8891 19.8057 18.8585 19.877 18.828 19.9991C18.6449 20.7114 18.4668 21.4237 18.2582 22.1258C18.1259 22.5685 17.9478 22.9958 17.7799 23.4537C18.4057 23.4537 19.0061 23.4588 19.6065 23.4487C19.6675 23.4487 19.7438 23.3927 19.7896 23.3418C20.4816 22.5786 21.0362 21.7239 21.5093 20.8131C21.6721 20.5028 21.8044 20.1721 21.9571 19.8363ZM20.8428 4.56243C20.9039 4.64383 20.9395 4.6998 20.9802 4.75068C21.6467 5.63597 22.2115 6.58741 22.6388 7.61007C22.878 8.17991 22.878 8.17991 23.4936 8.17991C23.8803 8.17991 24.2619 8.17991 24.6791 8.17991C23.977 6.89777 23.0815 5.8344 22.0537 4.8677C21.6925 4.52681 21.316 4.49629 20.8428 4.56243ZM3.32524 8.185C3.87473 8.185 4.37843 8.17483 4.88213 8.19009C5.07547 8.19518 5.16196 8.12904 5.23319 7.95096C5.69619 6.77566 6.31691 5.68685 7.08518 4.67945C7.11062 4.64383 7.1208 4.59804 7.15133 4.53699C6.9122 4.53699 6.70359 4.5319 6.49499 4.54208C6.41867 4.54716 6.32709 4.57769 6.27112 4.62857C5.08056 5.61053 4.10877 6.77566 3.32524 8.185ZM3.33541 19.8108C3.3812 19.8973 3.40156 19.9431 3.427 19.9838C4.12912 21.2202 5.03985 22.2886 6.09813 23.2401C6.43902 23.5453 6.785 23.4283 7.19712 23.4537C6.33218 22.3446 5.68093 21.1845 5.18232 19.9431C5.16196 19.8871 5.08056 19.821 5.02459 19.821C4.4751 19.8057 3.9307 19.8108 3.33541 19.8108ZM24.6893 19.8108C24.1296 19.8108 23.6208 19.821 23.1069 19.8057C22.9339 19.8006 22.8525 19.8617 22.7915 20.0194C22.3285 21.2151 21.6976 22.3141 20.9141 23.3316C20.8937 23.3622 20.8835 23.4029 20.8632 23.4537C21.1074 23.4537 21.3262 23.4588 21.545 23.4487C21.6162 23.4436 21.6925 23.408 21.7485 23.3673C22.9339 22.3802 23.9057 21.2151 24.6893 19.8108ZM16.3655 3.67205C15.8669 2.8936 15.353 2.19147 14.4372 1.90146C14.4372 2.5171 14.4372 3.08694 14.4372 3.67205C15.0732 3.67205 15.699 3.67205 16.3655 3.67205ZM13.5773 1.89638C12.6564 2.21183 12.1324 2.89869 11.6592 3.67205C12.3206 3.67205 12.9464 3.67205 13.5773 3.67205C13.5773 3.08185 13.5773 2.51201 13.5773 1.89638ZM11.6439 24.3136C12.1476 25.0971 12.6615 25.7942 13.5722 26.0893C13.5722 25.4787 13.5722 24.8987 13.5722 24.3136C12.9363 24.3136 12.3104 24.3136 11.6439 24.3136ZM14.4219 26.0791C15.119 25.9112 16.0246 25.0615 16.3248 24.3238C15.6939 24.3238 15.0681 24.3238 14.427 24.3238C14.4219 24.4001 14.4168 24.4561 14.4168 24.5171C14.4219 25.031 14.4219 25.5449 14.4219 26.0791ZM18.7568 3.68731C18.2734 3.17344 16.8794 2.36446 16.4927 2.3492C16.7471 2.74605 17.0116 3.15817 17.2813 3.5652C17.3169 3.61608 17.378 3.67714 17.4289 3.68222C17.8613 3.6924 18.2989 3.68731 18.7568 3.68731ZM11.5473 2.29832C10.6925 2.61886 9.94966 3.07168 9.21192 3.68222C9.71053 3.68222 10.1481 3.68731 10.5806 3.67714C10.6314 3.67714 10.6925 3.61099 10.7281 3.56011C11.0029 3.15817 11.2623 2.74605 11.5473 2.29832ZM11.5473 25.6924C11.2572 25.2396 10.9825 24.8071 10.7027 24.3797C10.6772 24.3441 10.6213 24.3085 10.5806 24.3085C10.1481 24.3034 9.71562 24.3034 9.21192 24.3034C9.95475 24.9191 10.6976 25.3719 11.5473 25.6924ZM18.7975 24.3034C18.4312 24.3034 18.1361 24.3289 17.8461 24.2983C17.4797 24.2576 17.261 24.3797 17.0931 24.7155C16.9252 25.0513 16.6809 25.3464 16.4418 25.7026C17.322 25.3668 18.0648 24.9191 18.7975 24.3034ZM20.4205 3.65678C20.1254 3.48888 19.8812 3.35151 19.6319 3.20905C19.6217 3.2294 19.6116 3.24467 19.6014 3.26502C19.8354 3.43292 19.9677 3.77889 20.4205 3.65678ZM8.41312 3.27011C8.39786 3.24975 8.38768 3.23449 8.37242 3.21414C8.1282 3.3566 7.88398 3.49906 7.60415 3.65678C8.04679 3.78907 8.17399 3.43292 8.41312 3.27011ZM7.59397 24.339C7.88398 24.5018 8.13329 24.6443 8.37751 24.7817C8.38768 24.7613 8.39786 24.7461 8.40803 24.7257C8.17399 24.5629 8.04679 24.2017 7.59397 24.339ZM19.6065 24.7257C19.6166 24.7461 19.6268 24.7613 19.637 24.7817C19.8812 24.6392 20.1305 24.4968 20.4154 24.3339C19.9677 24.2169 19.8354 24.5527 19.6065 24.7257Z"/>
</mask>
<path d="M14.7679 27C14.2591 27 13.7503 27 13.2466 27C13.1703 26.9847 13.0991 26.9695 13.0227 26.9542C12.3155 26.8423 11.5931 26.7863 10.896 26.6184C4.22579 25.0208 -0.073469 18.315 1.23412 11.5684C1.77852 8.75993 3.08611 6.36863 5.19758 4.44541C8.20961 1.70304 11.766 0.609142 15.7956 1.12302C18.365 1.44864 20.624 2.50183 22.5676 4.21645C24.8521 6.23634 26.2818 8.74467 26.8058 11.7567C26.8923 12.2451 26.9381 12.7387 27.0043 13.2322C27.0043 13.741 27.0043 14.2498 27.0043 14.7535C26.989 14.845 26.9686 14.9315 26.9585 15.0231C26.8974 15.4912 26.8618 15.9644 26.7702 16.4325C26.2767 19.0222 25.1014 21.2609 23.2443 23.1332C21.3007 25.0971 18.9654 26.3284 16.2383 26.8016C15.76 26.883 15.2614 26.9339 14.7679 27ZM18.1717 18.9561C18.4363 17.4551 18.5533 15.9491 18.5787 14.438C17.1795 14.438 15.8109 14.438 14.4372 14.438C14.4372 15.9542 14.4372 17.45 14.4372 18.9561C15.6837 18.9561 16.9099 18.9561 18.1717 18.9561ZM9.43579 14.4278C9.46631 15.9593 9.57825 17.4653 9.84791 18.9561C11.1046 18.9561 12.3359 18.9561 13.5773 18.9561C13.5773 17.4399 13.5773 15.944 13.5773 14.4278C12.1934 14.4278 10.8299 14.4278 9.43579 14.4278ZM18.2327 9.03468C16.9099 9.03468 15.6786 9.03468 14.4372 9.03468C14.4372 10.5509 14.4372 12.0467 14.4372 13.5578C15.8211 13.5578 17.1948 13.5578 18.6347 13.5578C18.5024 12.0365 18.3701 10.5407 18.2327 9.03468ZM9.37982 13.5629C10.835 13.5629 12.1985 13.5629 13.5773 13.5629C13.5773 12.0467 13.5773 10.5458 13.5773 9.03468C12.3257 9.03468 11.0893 9.03468 9.78176 9.03468C9.64439 10.5407 9.5121 12.0365 9.37982 13.5629ZM23.0408 14.4329C21.8299 14.4329 20.6393 14.4329 19.4742 14.4329C19.3419 15.9542 19.2147 17.45 19.0875 18.9561C20.1203 18.9561 21.1939 18.9561 22.2674 18.9561C22.6643 18.0504 23.1069 15.5065 23.0408 14.4329ZM4.95336 14.4278C4.99406 15.9949 5.24337 17.506 5.7369 18.9561C6.84097 18.9561 7.89925 18.9561 8.92191 18.9561C8.79471 17.4399 8.66243 15.9389 8.53523 14.4278C7.35993 14.4278 6.16936 14.4278 4.95336 14.4278ZM19.0875 9.02959C19.2198 10.556 19.347 12.0569 19.4742 13.5629C20.6546 13.5629 21.8451 13.5629 23.0561 13.5629C23.0154 12.0009 22.766 10.4949 22.2725 9.02959C21.1939 9.02959 20.1305 9.02959 19.0875 9.02959ZM8.927 9.03468C8.927 9.03468 8.90665 9.0245 8.88121 9.0245C7.88398 9.0245 6.88676 9.0245 5.88444 9.01942C5.73181 9.01942 5.71146 9.10082 5.67075 9.21275C5.34513 10.2202 5.14161 11.2581 5.02459 12.3113C4.9788 12.7234 4.97371 13.1457 4.94827 13.568C6.18463 13.568 7.37011 13.568 8.53523 13.568C8.66752 12.0518 8.79471 10.556 8.927 9.03468ZM14.4423 19.8261C14.4423 21.0421 14.4423 22.2377 14.4423 23.4537C15.2207 23.4537 15.9788 23.4588 16.742 23.4436C16.803 23.4436 16.8895 23.3418 16.915 23.2655C17.2406 22.3242 17.5561 21.383 17.8664 20.4366C17.9326 20.2433 17.958 20.0347 18.0038 19.821C16.7929 19.8261 15.6227 19.8261 14.4423 19.8261ZM13.5773 23.4537C13.5773 22.2225 13.5773 21.0319 13.5773 19.8261C12.3868 19.8261 11.2115 19.8261 10.0107 19.8261C10.2702 21.0523 10.6162 22.2225 11.1301 23.3367C11.1504 23.3876 11.2267 23.4436 11.2725 23.4436C12.0357 23.4588 12.7938 23.4537 13.5773 23.4537ZM13.5722 8.16465C13.5722 6.95373 13.5722 5.75299 13.5722 4.53699C12.7938 4.53699 12.0357 4.5319 11.2776 4.54716C11.2165 4.54716 11.1301 4.64892 11.1046 4.72015C10.8604 5.36631 10.606 6.01248 10.3923 6.66881C10.2346 7.15216 10.1328 7.65586 10.0005 8.16465C11.2165 8.16465 12.3918 8.16465 13.5722 8.16465ZM18.0038 8.16465C17.7443 6.93338 17.3983 5.76317 16.8794 4.64892C16.8488 4.58787 16.7216 4.53699 16.6351 4.53699C15.9839 4.52681 15.3326 4.5319 14.6814 4.5319C14.6 4.5319 14.5186 4.54208 14.4372 4.54716C14.4372 5.76317 14.4372 6.95373 14.4372 8.15956C15.6227 8.16465 16.7929 8.16465 18.0038 8.16465ZM4.84652 9.01942C4.22071 9.01942 3.64577 9.0245 3.07084 9.01433C2.91312 9.00924 2.87242 9.09573 2.82663 9.20767C2.40942 10.1744 2.12958 11.1818 1.98204 12.2248C1.92098 12.6623 1.89045 13.1101 1.84975 13.5629C2.6282 13.5629 3.36085 13.5629 4.10877 13.5629C4.14948 12.0213 4.38352 10.5203 4.84652 9.01942ZM26.1291 13.568C26.1393 13.5222 26.1444 13.4968 26.1444 13.4713C26.0935 11.9653 25.7526 10.5305 25.1574 9.1517C25.137 9.10082 25.0709 9.02959 25.0251 9.02959C24.4196 9.01941 23.8141 9.0245 23.168 9.0245C23.631 10.5203 23.8599 12.0264 23.9108 13.568C24.6638 13.568 25.3863 13.568 26.1291 13.568ZM1.88537 14.4278C1.87519 14.4685 1.86501 14.494 1.86501 14.5194C1.88028 14.7636 1.89045 15.0079 1.91589 15.2521C2.03292 16.4884 2.34836 17.679 2.84189 18.8187C2.86733 18.8797 2.94873 18.9662 3.0047 18.9662C3.60507 18.9764 4.20035 18.9713 4.84652 18.9713C4.37843 17.4755 4.15456 15.9695 4.0986 14.4278C3.35577 14.4278 2.6282 14.4278 1.88537 14.4278ZM23.168 18.9713C23.7734 18.9713 24.3331 18.9611 24.8877 18.9764C25.0658 18.9815 25.1319 18.9103 25.1981 18.7627C25.6051 17.8011 25.8849 16.8039 26.0325 15.771C26.0935 15.3335 26.124 14.8857 26.1648 14.4329C25.3863 14.4329 24.6537 14.4329 23.9057 14.4329C23.8599 15.9695 23.631 17.4653 23.168 18.9713ZM21.9367 8.16974C21.9265 8.11886 21.9265 8.08324 21.9164 8.0578C21.5042 7.08093 20.9853 6.16002 20.3442 5.31544C19.754 4.53699 19.7489 4.54208 18.7721 4.54208C18.6347 4.54208 18.5024 4.54208 18.365 4.54208C18.1768 4.54208 17.9885 4.54208 17.7697 4.54208C18.2582 5.7072 18.594 6.86724 18.8535 8.04763C18.8687 8.10868 19.0112 8.17991 19.0926 8.185C19.9575 8.19518 20.8174 8.19009 21.6823 8.19009C21.7586 8.17991 21.84 8.17483 21.9367 8.16974ZM6.05743 8.15448C6.12357 8.16974 6.1541 8.17991 6.18463 8.17991C7.11571 8.17991 8.04679 8.17991 8.97788 8.185C9.12034 8.185 9.15595 8.11886 9.19157 7.99675C9.36964 7.29462 9.54772 6.58741 9.75124 5.89037C9.88352 5.43754 10.0667 5.00507 10.2346 4.53699C9.61386 4.53699 9.01349 4.5319 8.41312 4.54208C8.34698 4.54208 8.26557 4.60822 8.21469 4.66927C7.54309 5.41719 6.9936 6.24652 6.53569 7.1369C6.35762 7.45743 6.22024 7.79832 6.05743 8.15448ZM10.1583 23.4537C9.83264 22.3039 9.50702 21.1795 9.20174 20.0449C9.15087 19.8617 9.0949 19.8006 8.90665 19.8006C8.04171 19.8108 7.18185 19.8057 6.31691 19.8057C6.24568 19.8057 6.16936 19.8159 6.09305 19.821C6.09305 19.8617 6.08796 19.8871 6.09305 19.9075C6.62219 21.1744 7.32432 22.3293 8.24013 23.3571C8.28084 23.4029 8.35207 23.4436 8.40803 23.4487C9.0084 23.4588 9.60878 23.4537 10.1583 23.4537ZM21.9571 19.8363C21.8909 19.821 21.8604 19.8108 21.8299 19.8108C20.8988 19.8108 19.9677 19.8108 19.0366 19.8057C18.8891 19.8057 18.8585 19.877 18.828 19.9991C18.6449 20.7114 18.4668 21.4237 18.2582 22.1258C18.1259 22.5685 17.9478 22.9958 17.7799 23.4537C18.4057 23.4537 19.0061 23.4588 19.6065 23.4487C19.6675 23.4487 19.7438 23.3927 19.7896 23.3418C20.4816 22.5786 21.0362 21.7239 21.5093 20.8131C21.6721 20.5028 21.8044 20.1721 21.9571 19.8363ZM20.8428 4.56243C20.9039 4.64383 20.9395 4.6998 20.9802 4.75068C21.6467 5.63597 22.2115 6.58741 22.6388 7.61007C22.878 8.17991 22.878 8.17991 23.4936 8.17991C23.8803 8.17991 24.2619 8.17991 24.6791 8.17991C23.977 6.89777 23.0815 5.8344 22.0537 4.8677C21.6925 4.52681 21.316 4.49629 20.8428 4.56243ZM3.32524 8.185C3.87473 8.185 4.37843 8.17483 4.88213 8.19009C5.07547 8.19518 5.16196 8.12904 5.23319 7.95096C5.69619 6.77566 6.31691 5.68685 7.08518 4.67945C7.11062 4.64383 7.1208 4.59804 7.15133 4.53699C6.9122 4.53699 6.70359 4.5319 6.49499 4.54208C6.41867 4.54716 6.32709 4.57769 6.27112 4.62857C5.08056 5.61053 4.10877 6.77566 3.32524 8.185ZM3.33541 19.8108C3.3812 19.8973 3.40156 19.9431 3.427 19.9838C4.12912 21.2202 5.03985 22.2886 6.09813 23.2401C6.43902 23.5453 6.785 23.4283 7.19712 23.4537C6.33218 22.3446 5.68093 21.1845 5.18232 19.9431C5.16196 19.8871 5.08056 19.821 5.02459 19.821C4.4751 19.8057 3.9307 19.8108 3.33541 19.8108ZM24.6893 19.8108C24.1296 19.8108 23.6208 19.821 23.1069 19.8057C22.9339 19.8006 22.8525 19.8617 22.7915 20.0194C22.3285 21.2151 21.6976 22.3141 20.9141 23.3316C20.8937 23.3622 20.8835 23.4029 20.8632 23.4537C21.1074 23.4537 21.3262 23.4588 21.545 23.4487C21.6162 23.4436 21.6925 23.408 21.7485 23.3673C22.9339 22.3802 23.9057 21.2151 24.6893 19.8108ZM16.3655 3.67205C15.8669 2.8936 15.353 2.19147 14.4372 1.90146C14.4372 2.5171 14.4372 3.08694 14.4372 3.67205C15.0732 3.67205 15.699 3.67205 16.3655 3.67205ZM13.5773 1.89638C12.6564 2.21183 12.1324 2.89869 11.6592 3.67205C12.3206 3.67205 12.9464 3.67205 13.5773 3.67205C13.5773 3.08185 13.5773 2.51201 13.5773 1.89638ZM11.6439 24.3136C12.1476 25.0971 12.6615 25.7942 13.5722 26.0893C13.5722 25.4787 13.5722 24.8987 13.5722 24.3136C12.9363 24.3136 12.3104 24.3136 11.6439 24.3136ZM14.4219 26.0791C15.119 25.9112 16.0246 25.0615 16.3248 24.3238C15.6939 24.3238 15.0681 24.3238 14.427 24.3238C14.4219 24.4001 14.4168 24.4561 14.4168 24.5171C14.4219 25.031 14.4219 25.5449 14.4219 26.0791ZM18.7568 3.68731C18.2734 3.17344 16.8794 2.36446 16.4927 2.3492C16.7471 2.74605 17.0116 3.15817 17.2813 3.5652C17.3169 3.61608 17.378 3.67714 17.4289 3.68222C17.8613 3.6924 18.2989 3.68731 18.7568 3.68731ZM11.5473 2.29832C10.6925 2.61886 9.94966 3.07168 9.21192 3.68222C9.71053 3.68222 10.1481 3.68731 10.5806 3.67714C10.6314 3.67714 10.6925 3.61099 10.7281 3.56011C11.0029 3.15817 11.2623 2.74605 11.5473 2.29832ZM11.5473 25.6924C11.2572 25.2396 10.9825 24.8071 10.7027 24.3797C10.6772 24.3441 10.6213 24.3085 10.5806 24.3085C10.1481 24.3034 9.71562 24.3034 9.21192 24.3034C9.95475 24.9191 10.6976 25.3719 11.5473 25.6924ZM18.7975 24.3034C18.4312 24.3034 18.1361 24.3289 17.8461 24.2983C17.4797 24.2576 17.261 24.3797 17.0931 24.7155C16.9252 25.0513 16.6809 25.3464 16.4418 25.7026C17.322 25.3668 18.0648 24.9191 18.7975 24.3034ZM20.4205 3.65678C20.1254 3.48888 19.8812 3.35151 19.6319 3.20905C19.6217 3.2294 19.6116 3.24467 19.6014 3.26502C19.8354 3.43292 19.9677 3.77889 20.4205 3.65678ZM8.41312 3.27011C8.39786 3.24975 8.38768 3.23449 8.37242 3.21414C8.1282 3.3566 7.88398 3.49906 7.60415 3.65678C8.04679 3.78907 8.17399 3.43292 8.41312 3.27011ZM7.59397 24.339C7.88398 24.5018 8.13329 24.6443 8.37751 24.7817C8.38768 24.7613 8.39786 24.7461 8.40803 24.7257C8.17399 24.5629 8.04679 24.2017 7.59397 24.339ZM19.6065 24.7257C19.6166 24.7461 19.6268 24.7613 19.637 24.7817C19.8812 24.6392 20.1305 24.4968 20.4154 24.3339C19.9677 24.2169 19.8354 24.5527 19.6065 24.7257Z" fill="#3F3F8E"/>
<path d="M14.7679 27C14.2591 27 13.7503 27 13.2466 27C13.1703 26.9847 13.0991 26.9695 13.0227 26.9542C12.3155 26.8423 11.5931 26.7863 10.896 26.6184C4.22579 25.0208 -0.073469 18.315 1.23412 11.5684C1.77852 8.75993 3.08611 6.36863 5.19758 4.44541C8.20961 1.70304 11.766 0.609142 15.7956 1.12302C18.365 1.44864 20.624 2.50183 22.5676 4.21645C24.8521 6.23634 26.2818 8.74467 26.8058 11.7567C26.8923 12.2451 26.9381 12.7387 27.0043 13.2322C27.0043 13.741 27.0043 14.2498 27.0043 14.7535C26.989 14.845 26.9686 14.9315 26.9585 15.0231C26.8974 15.4912 26.8618 15.9644 26.7702 16.4325C26.2767 19.0222 25.1014 21.2609 23.2443 23.1332C21.3007 25.0971 18.9654 26.3284 16.2383 26.8016C15.76 26.883 15.2614 26.9339 14.7679 27ZM18.1717 18.9561C18.4363 17.4551 18.5533 15.9491 18.5787 14.438C17.1795 14.438 15.8109 14.438 14.4372 14.438C14.4372 15.9542 14.4372 17.45 14.4372 18.9561C15.6837 18.9561 16.9099 18.9561 18.1717 18.9561ZM9.43579 14.4278C9.46631 15.9593 9.57825 17.4653 9.84791 18.9561C11.1046 18.9561 12.3359 18.9561 13.5773 18.9561C13.5773 17.4399 13.5773 15.944 13.5773 14.4278C12.1934 14.4278 10.8299 14.4278 9.43579 14.4278ZM18.2327 9.03468C16.9099 9.03468 15.6786 9.03468 14.4372 9.03468C14.4372 10.5509 14.4372 12.0467 14.4372 13.5578C15.8211 13.5578 17.1948 13.5578 18.6347 13.5578C18.5024 12.0365 18.3701 10.5407 18.2327 9.03468ZM9.37982 13.5629C10.835 13.5629 12.1985 13.5629 13.5773 13.5629C13.5773 12.0467 13.5773 10.5458 13.5773 9.03468C12.3257 9.03468 11.0893 9.03468 9.78176 9.03468C9.64439 10.5407 9.5121 12.0365 9.37982 13.5629ZM23.0408 14.4329C21.8299 14.4329 20.6393 14.4329 19.4742 14.4329C19.3419 15.9542 19.2147 17.45 19.0875 18.9561C20.1203 18.9561 21.1939 18.9561 22.2674 18.9561C22.6643 18.0504 23.1069 15.5065 23.0408 14.4329ZM4.95336 14.4278C4.99406 15.9949 5.24337 17.506 5.7369 18.9561C6.84097 18.9561 7.89925 18.9561 8.92191 18.9561C8.79471 17.4399 8.66243 15.9389 8.53523 14.4278C7.35993 14.4278 6.16936 14.4278 4.95336 14.4278ZM19.0875 9.02959C19.2198 10.556 19.347 12.0569 19.4742 13.5629C20.6546 13.5629 21.8451 13.5629 23.0561 13.5629C23.0154 12.0009 22.766 10.4949 22.2725 9.02959C21.1939 9.02959 20.1305 9.02959 19.0875 9.02959ZM8.927 9.03468C8.927 9.03468 8.90665 9.0245 8.88121 9.0245C7.88398 9.0245 6.88676 9.0245 5.88444 9.01942C5.73181 9.01942 5.71146 9.10082 5.67075 9.21275C5.34513 10.2202 5.14161 11.2581 5.02459 12.3113C4.9788 12.7234 4.97371 13.1457 4.94827 13.568C6.18463 13.568 7.37011 13.568 8.53523 13.568C8.66752 12.0518 8.79471 10.556 8.927 9.03468ZM14.4423 19.8261C14.4423 21.0421 14.4423 22.2377 14.4423 23.4537C15.2207 23.4537 15.9788 23.4588 16.742 23.4436C16.803 23.4436 16.8895 23.3418 16.915 23.2655C17.2406 22.3242 17.5561 21.383 17.8664 20.4366C17.9326 20.2433 17.958 20.0347 18.0038 19.821C16.7929 19.8261 15.6227 19.8261 14.4423 19.8261ZM13.5773 23.4537C13.5773 22.2225 13.5773 21.0319 13.5773 19.8261C12.3868 19.8261 11.2115 19.8261 10.0107 19.8261C10.2702 21.0523 10.6162 22.2225 11.1301 23.3367C11.1504 23.3876 11.2267 23.4436 11.2725 23.4436C12.0357 23.4588 12.7938 23.4537 13.5773 23.4537ZM13.5722 8.16465C13.5722 6.95373 13.5722 5.75299 13.5722 4.53699C12.7938 4.53699 12.0357 4.5319 11.2776 4.54716C11.2165 4.54716 11.1301 4.64892 11.1046 4.72015C10.8604 5.36631 10.606 6.01248 10.3923 6.66881C10.2346 7.15216 10.1328 7.65586 10.0005 8.16465C11.2165 8.16465 12.3918 8.16465 13.5722 8.16465ZM18.0038 8.16465C17.7443 6.93338 17.3983 5.76317 16.8794 4.64892C16.8488 4.58787 16.7216 4.53699 16.6351 4.53699C15.9839 4.52681 15.3326 4.5319 14.6814 4.5319C14.6 4.5319 14.5186 4.54208 14.4372 4.54716C14.4372 5.76317 14.4372 6.95373 14.4372 8.15956C15.6227 8.16465 16.7929 8.16465 18.0038 8.16465ZM4.84652 9.01942C4.22071 9.01942 3.64577 9.0245 3.07084 9.01433C2.91312 9.00924 2.87242 9.09573 2.82663 9.20767C2.40942 10.1744 2.12958 11.1818 1.98204 12.2248C1.92098 12.6623 1.89045 13.1101 1.84975 13.5629C2.6282 13.5629 3.36085 13.5629 4.10877 13.5629C4.14948 12.0213 4.38352 10.5203 4.84652 9.01942ZM26.1291 13.568C26.1393 13.5222 26.1444 13.4968 26.1444 13.4713C26.0935 11.9653 25.7526 10.5305 25.1574 9.1517C25.137 9.10082 25.0709 9.02959 25.0251 9.02959C24.4196 9.01941 23.8141 9.0245 23.168 9.0245C23.631 10.5203 23.8599 12.0264 23.9108 13.568C24.6638 13.568 25.3863 13.568 26.1291 13.568ZM1.88537 14.4278C1.87519 14.4685 1.86501 14.494 1.86501 14.5194C1.88028 14.7636 1.89045 15.0079 1.91589 15.2521C2.03292 16.4884 2.34836 17.679 2.84189 18.8187C2.86733 18.8797 2.94873 18.9662 3.0047 18.9662C3.60507 18.9764 4.20035 18.9713 4.84652 18.9713C4.37843 17.4755 4.15456 15.9695 4.0986 14.4278C3.35577 14.4278 2.6282 14.4278 1.88537 14.4278ZM23.168 18.9713C23.7734 18.9713 24.3331 18.9611 24.8877 18.9764C25.0658 18.9815 25.1319 18.9103 25.1981 18.7627C25.6051 17.8011 25.8849 16.8039 26.0325 15.771C26.0935 15.3335 26.124 14.8857 26.1648 14.4329C25.3863 14.4329 24.6537 14.4329 23.9057 14.4329C23.8599 15.9695 23.631 17.4653 23.168 18.9713ZM21.9367 8.16974C21.9265 8.11886 21.9265 8.08324 21.9164 8.0578C21.5042 7.08093 20.9853 6.16002 20.3442 5.31544C19.754 4.53699 19.7489 4.54208 18.7721 4.54208C18.6347 4.54208 18.5024 4.54208 18.365 4.54208C18.1768 4.54208 17.9885 4.54208 17.7697 4.54208C18.2582 5.7072 18.594 6.86724 18.8535 8.04763C18.8687 8.10868 19.0112 8.17991 19.0926 8.185C19.9575 8.19518 20.8174 8.19009 21.6823 8.19009C21.7586 8.17991 21.84 8.17483 21.9367 8.16974ZM6.05743 8.15448C6.12357 8.16974 6.1541 8.17991 6.18463 8.17991C7.11571 8.17991 8.04679 8.17991 8.97788 8.185C9.12034 8.185 9.15595 8.11886 9.19157 7.99675C9.36964 7.29462 9.54772 6.58741 9.75124 5.89037C9.88352 5.43754 10.0667 5.00507 10.2346 4.53699C9.61386 4.53699 9.01349 4.5319 8.41312 4.54208C8.34698 4.54208 8.26557 4.60822 8.21469 4.66927C7.54309 5.41719 6.9936 6.24652 6.53569 7.1369C6.35762 7.45743 6.22024 7.79832 6.05743 8.15448ZM10.1583 23.4537C9.83264 22.3039 9.50702 21.1795 9.20174 20.0449C9.15087 19.8617 9.0949 19.8006 8.90665 19.8006C8.04171 19.8108 7.18185 19.8057 6.31691 19.8057C6.24568 19.8057 6.16936 19.8159 6.09305 19.821C6.09305 19.8617 6.08796 19.8871 6.09305 19.9075C6.62219 21.1744 7.32432 22.3293 8.24013 23.3571C8.28084 23.4029 8.35207 23.4436 8.40803 23.4487C9.0084 23.4588 9.60878 23.4537 10.1583 23.4537ZM21.9571 19.8363C21.8909 19.821 21.8604 19.8108 21.8299 19.8108C20.8988 19.8108 19.9677 19.8108 19.0366 19.8057C18.8891 19.8057 18.8585 19.877 18.828 19.9991C18.6449 20.7114 18.4668 21.4237 18.2582 22.1258C18.1259 22.5685 17.9478 22.9958 17.7799 23.4537C18.4057 23.4537 19.0061 23.4588 19.6065 23.4487C19.6675 23.4487 19.7438 23.3927 19.7896 23.3418C20.4816 22.5786 21.0362 21.7239 21.5093 20.8131C21.6721 20.5028 21.8044 20.1721 21.9571 19.8363ZM20.8428 4.56243C20.9039 4.64383 20.9395 4.6998 20.9802 4.75068C21.6467 5.63597 22.2115 6.58741 22.6388 7.61007C22.878 8.17991 22.878 8.17991 23.4936 8.17991C23.8803 8.17991 24.2619 8.17991 24.6791 8.17991C23.977 6.89777 23.0815 5.8344 22.0537 4.8677C21.6925 4.52681 21.316 4.49629 20.8428 4.56243ZM3.32524 8.185C3.87473 8.185 4.37843 8.17483 4.88213 8.19009C5.07547 8.19518 5.16196 8.12904 5.23319 7.95096C5.69619 6.77566 6.31691 5.68685 7.08518 4.67945C7.11062 4.64383 7.1208 4.59804 7.15133 4.53699C6.9122 4.53699 6.70359 4.5319 6.49499 4.54208C6.41867 4.54716 6.32709 4.57769 6.27112 4.62857C5.08056 5.61053 4.10877 6.77566 3.32524 8.185ZM3.33541 19.8108C3.3812 19.8973 3.40156 19.9431 3.427 19.9838C4.12912 21.2202 5.03985 22.2886 6.09813 23.2401C6.43902 23.5453 6.785 23.4283 7.19712 23.4537C6.33218 22.3446 5.68093 21.1845 5.18232 19.9431C5.16196 19.8871 5.08056 19.821 5.02459 19.821C4.4751 19.8057 3.9307 19.8108 3.33541 19.8108ZM24.6893 19.8108C24.1296 19.8108 23.6208 19.821 23.1069 19.8057C22.9339 19.8006 22.8525 19.8617 22.7915 20.0194C22.3285 21.2151 21.6976 22.3141 20.9141 23.3316C20.8937 23.3622 20.8835 23.4029 20.8632 23.4537C21.1074 23.4537 21.3262 23.4588 21.545 23.4487C21.6162 23.4436 21.6925 23.408 21.7485 23.3673C22.9339 22.3802 23.9057 21.2151 24.6893 19.8108ZM16.3655 3.67205C15.8669 2.8936 15.353 2.19147 14.4372 1.90146C14.4372 2.5171 14.4372 3.08694 14.4372 3.67205C15.0732 3.67205 15.699 3.67205 16.3655 3.67205ZM13.5773 1.89638C12.6564 2.21183 12.1324 2.89869 11.6592 3.67205C12.3206 3.67205 12.9464 3.67205 13.5773 3.67205C13.5773 3.08185 13.5773 2.51201 13.5773 1.89638ZM11.6439 24.3136C12.1476 25.0971 12.6615 25.7942 13.5722 26.0893C13.5722 25.4787 13.5722 24.8987 13.5722 24.3136C12.9363 24.3136 12.3104 24.3136 11.6439 24.3136ZM14.4219 26.0791C15.119 25.9112 16.0246 25.0615 16.3248 24.3238C15.6939 24.3238 15.0681 24.3238 14.427 24.3238C14.4219 24.4001 14.4168 24.4561 14.4168 24.5171C14.4219 25.031 14.4219 25.5449 14.4219 26.0791ZM18.7568 3.68731C18.2734 3.17344 16.8794 2.36446 16.4927 2.3492C16.7471 2.74605 17.0116 3.15817 17.2813 3.5652C17.3169 3.61608 17.378 3.67714 17.4289 3.68222C17.8613 3.6924 18.2989 3.68731 18.7568 3.68731ZM11.5473 2.29832C10.6925 2.61886 9.94966 3.07168 9.21192 3.68222C9.71053 3.68222 10.1481 3.68731 10.5806 3.67714C10.6314 3.67714 10.6925 3.61099 10.7281 3.56011C11.0029 3.15817 11.2623 2.74605 11.5473 2.29832ZM11.5473 25.6924C11.2572 25.2396 10.9825 24.8071 10.7027 24.3797C10.6772 24.3441 10.6213 24.3085 10.5806 24.3085C10.1481 24.3034 9.71562 24.3034 9.21192 24.3034C9.95475 24.9191 10.6976 25.3719 11.5473 25.6924ZM18.7975 24.3034C18.4312 24.3034 18.1361 24.3289 17.8461 24.2983C17.4797 24.2576 17.261 24.3797 17.0931 24.7155C16.9252 25.0513 16.6809 25.3464 16.4418 25.7026C17.322 25.3668 18.0648 24.9191 18.7975 24.3034ZM20.4205 3.65678C20.1254 3.48888 19.8812 3.35151 19.6319 3.20905C19.6217 3.2294 19.6116 3.24467 19.6014 3.26502C19.8354 3.43292 19.9677 3.77889 20.4205 3.65678ZM8.41312 3.27011C8.39786 3.24975 8.38768 3.23449 8.37242 3.21414C8.1282 3.3566 7.88398 3.49906 7.60415 3.65678C8.04679 3.78907 8.17399 3.43292 8.41312 3.27011ZM7.59397 24.339C7.88398 24.5018 8.13329 24.6443 8.37751 24.7817C8.38768 24.7613 8.39786 24.7461 8.40803 24.7257C8.17399 24.5629 8.04679 24.2017 7.59397 24.339ZM19.6065 24.7257C19.6166 24.7461 19.6268 24.7613 19.637 24.7817C19.8812 24.6392 20.1305 24.4968 20.4154 24.3339C19.9677 24.2169 19.8354 24.5527 19.6065 24.7257Z" stroke="#3F3F8E" stroke-width="0.6" mask="url(#path-1-outside-1)"/>
</svg>
